<?xml version="1.0" standalone="no"?>
<!DOCTYPE svg PUBLIC "-//W3C//DTD SVG 20010904//EN"
 "http://www.w3.org/TR/2001/REC-SVG-20010904/DTD/svg10.dtd">
<svg version="1.0" xmlns="http://www.w3.org/2000/svg"
 width="300.000000pt" height="273.000000pt" viewBox="0 0 300.000000 273.000000"
 preserveAspectRatio="xMidYMid meet">
<metadata>
Created by potrace 1.10, written by Peter Selinger 2001-2011
</metadata>
<g transform="translate(0.000000,273.000000) scale(0.100000,-0.100000)"
fill="#000000" stroke="none">
<path d="M20 1365 l0 -1345 1480 0 1480 0 0 1345 0 1345 -1480 0 -1480 0 0
-1345z m2950 0 l0 -1335 -1470 0 -1470 0 0 1335 0 1335 1470 0 1470 0 0 -1335z"/>
<path d="M110 2591 c0 -39 2 -41 29 -41 32 0 41 13 31 50 -4 18 -14 26 -33 28
-25 3 -27 1 -27 -37z"/>
<path d="M194 2616 c-12 -31 0 -61 25 -61 31 0 50 28 35 53 -14 22 -52 28 -60
8z m46 -26 c0 -21 -24 -28 -35 -10 -8 14 3 30 21 30 8 0 14 -9 14 -20z"/>
<path d="M270 2590 c0 -23 5 -40 11 -40 6 0 9 7 5 15 -3 9 0 15 9 15 8 0 15
-7 15 -15 0 -8 5 -15 10 -15 6 0 10 18 10 40 0 22 -4 40 -10 40 -5 0 -10 -7
-10 -15 0 -8 -7 -15 -15 -15 -9 0 -12 6 -9 15 4 8 1 15 -5 15 -6 0 -11 -17
-11 -40z"/>
<path d="M352 2618 c-27 -27 -3 -73 35 -66 27 5 25 72 -2 76 -11 1 -26 -3 -33
-10z m43 -28 c0 -8 -8 -16 -17 -18 -13 -2 -18 3 -18 18 0 15 5 20 18 18 9 -2
17 -10 17 -18z"/>
<path d="M424 2590 c1 -37 3 -40 28 -40 16 0 28 5 28 10 0 6 -9 10 -20 10 -16
0 -20 7 -20 30 0 17 -4 30 -9 30 -5 0 -8 -18 -7 -40z"/>
<path d="M510 2591 c0 -23 5 -41 10 -41 6 0 10 6 10 14 0 7 9 16 21 19 31 8
21 41 -14 45 -25 3 -27 1 -27 -37z"/>
<path d="M583 2590 c-1 -22 2 -40 8 -40 5 0 9 7 9 15 0 20 10 19 26 -2 7 -10
16 -15 20 -10 4 4 2 13 -4 19 -8 8 -8 15 -1 24 15 19 2 34 -29 34 -25 0 -28
-3 -29 -40z"/>
<path d="M664 2616 c-12 -31 0 -61 25 -61 31 0 50 28 35 53 -14 22 -52 28 -60
8z m46 -26 c0 -21 -24 -28 -35 -10 -8 14 3 30 21 30 8 0 14 -9 14 -20z"/>
<path d="M744 2594 c16 -49 31 -53 45 -13 14 39 14 49 1 49 -5 0 -10 -9 -10
-19 0 -28 -18 -36 -22 -9 -2 12 -9 23 -15 25 -10 4 -9 -4 1 -33z"/>
<path d="M810 2590 c0 -22 5 -40 10 -40 6 0 10 18 10 40 0 22 -4 40 -10 40 -5
0 -10 -18 -10 -40z"/>
<path d="M840 2590 c0 -22 5 -40 11 -40 6 0 8 9 4 23 l-6 22 20 -22 c27 -32
31 -29 31 17 0 23 -5 40 -11 40 -6 0 -9 -9 -6 -20 3 -11 1 -20 -3 -20 -5 0
-12 9 -15 20 -11 34 -25 22 -25 -20z"/>
<path d="M922 2618 c-25 -25 -6 -68 29 -68 9 0 19 7 23 15 4 12 0 14 -19 9
-21 -5 -25 -3 -25 16 0 17 4 21 20 17 13 -3 20 0 20 9 0 17 -32 18 -48 2z"/>
<path d="M990 2590 c0 -38 2 -40 30 -40 17 0 30 5 30 10 0 6 -9 10 -20 10 -11
0 -20 4 -20 10 0 5 7 7 15 4 8 -4 15 -1 15 4 0 6 -8 13 -17 15 -14 4 -12 5 5
6 33 2 27 21 -8 21 -28 0 -30 -2 -30 -40z"/>
<path d="M1430 2600 c0 -23 4 -25 44 -26 35 0 46 4 49 18 6 20 -4 23 -20 7 -7
-7 -15 -5 -27 6 -15 15 -16 15 -16 -1 0 -16 -1 -16 -15 2 -14 18 -14 18 -15
-6z"/>
<path d="M1537 2606 c-14 -36 -10 -38 96 -35 10 0 17 8 17 20 0 21 -16 26 -23
7 -4 -10 -6 -10 -6 0 -1 6 -5 12 -11 12 -5 0 -7 -8 -4 -17 3 -10 -2 -7 -10 7
-14 22 -22 16 -17 -12 2 -17 -17 -7 -26 14 -8 20 -10 20 -16 4z"/>
<path d="M1660 2601 c0 -27 17 -35 30 -14 9 16 10 16 8 1 -4 -20 16 -25 20 -5
1 7 -9 19 -23 25 -34 16 -35 15 -35 -7z"/>
<path d="M1773 2604 c-9 -23 13 -41 35 -28 13 9 20 7 29 -5 11 -14 14 -14 23
-1 5 8 10 22 9 30 0 9 -6 5 -15 -10 l-15 -25 7 24 c5 21 3 23 -15 18 -11 -3
-21 -1 -21 4 0 15 -30 10 -37 -7z"/>
<path d="M2030 2620 c-1 -3 -3 -15 -4 -27 -2 -19 2 -22 24 -19 15 2 32 6 38
10 6 3 13 2 17 -4 3 -5 11 -10 16 -10 6 0 7 6 3 13 -6 8 -3 8 9 -1 18 -16 39
-8 31 12 -6 16 -114 18 -115 2 0 -6 -4 -2 -9 9 -5 11 -9 18 -10 15z"/>
<path d="M1915 2600 c-7 -12 2 -30 15 -30 5 0 7 8 4 18 -5 16 -5 16 6 0 6 -10
20 -18 30 -18 12 0 20 7 21 18 0 15 1 15 8 -2 6 -15 10 -16 16 -7 4 8 2 17 -5
21 -15 10 -40 2 -40 -12 0 -5 -7 -2 -16 6 -18 18 -30 20 -39 6z"/>
<path d="M1233 2583 c31 -2 83 -2 115 0 31 2 5 3 -58 3 -63 0 -89 -1 -57 -3z"/>
<path d="M2767 2491 c-15 -50 -27 -93 -27 -96 0 -3 13 9 29 27 l29 33 22 -28
c12 -15 24 -26 27 -23 5 4 -45 176 -51 176 -1 0 -14 -40 -29 -89z m63 -55 c0
-6 -7 -1 -15 10 -8 10 -14 35 -14 54 l0 35 15 -45 c7 -25 14 -49 14 -54z"/>
<path d="M115 2498 c-3 -7 -4 -229 -3 -493 l3 -480 338 -3 337 -2 -2 492 -3
493 -333 3 c-261 2 -334 0 -337 -10z m665 -485 l0 -483 -327 0 -328 0 0 477 0
478 70 5 c39 3 186 5 327 5 l258 0 0 -482z"/>
<path d="M260 2430 c0 -29 1 -29 20 -13 11 10 20 23 20 30 0 7 -9 13 -20 13
-16 0 -20 -7 -20 -30z"/>
<path d="M311 2428 c0 -27 2 -29 8 -13 8 20 8 20 13 0 5 -17 6 -18 7 -2 0 10
-6 25 -14 33 -13 14 -15 12 -14 -18z"/>
<path d="M411 2442 c-6 -2 -11 -14 -11 -28 0 -18 4 -22 17 -17 11 4 12 8 5 11
-14 4 -16 22 -3 22 5 0 13 -9 16 -20 5 -16 10 -18 26 -9 42 22 -1 57 -50 41z"/>
<path d="M508 2442 c-19 -4 -26 -42 -8 -42 6 0 10 7 10 15 0 8 5 15 10 15 6 0
10 -8 10 -17 0 -13 3 -14 12 -5 7 7 17 12 23 12 5 0 3 -5 -5 -10 -13 -8 -12
-10 3 -10 10 0 17 8 17 19 0 23 -16 36 -25 21 -4 -7 -12 -7 -18 -2 -7 5 -20 7
-29 4z"/>
<path d="M395 2280 c-3 -5 -3 -14 0 -20 3 -5 -3 -10 -14 -10 -22 0 -29 -17
-33 -76 -1 -32 -5 -41 -16 -36 -13 4 -14 -2 -8 -38 4 -24 13 -48 20 -54 7 -6
16 -19 19 -29 6 -15 4 -16 -14 -6 -19 10 -18 7 5 -27 14 -21 26 -44 26 -50 0
-11 29 -28 36 -21 2 2 -10 19 -27 38 -19 21 -26 35 -18 38 7 2 21 -6 31 -19
13 -16 18 -18 18 -7 0 9 -5 19 -10 22 -15 9 -2 25 21 25 10 0 19 5 19 10 0 15
30 12 36 -4 3 -8 12 -12 19 -10 9 4 13 -2 11 -20 -4 -31 4 -39 24 -25 13 8 12
11 -3 23 -13 10 -15 15 -5 19 8 3 2 9 -14 16 -16 6 -28 15 -28 21 0 6 -9 6
-26 0 -14 -6 -31 -7 -37 -3 -7 4 -2 10 13 14 l25 6 -27 11 c-19 8 -26 16 -22
27 3 8 10 15 15 15 5 0 16 14 24 31 12 23 13 34 5 44 -6 8 -10 24 -8 37 2 18
-1 22 -18 20 -23 -3 -41 33 -20 42 8 3 8 5 -1 5 -6 1 -15 -3 -18 -9z m40 -53
c1 -1 5 -19 9 -39 5 -29 3 -41 -12 -55 -27 -26 -33 -49 -22 -79 13 -33 -5 -61
-26 -43 -10 8 -11 15 -4 24 12 15 -3 30 -19 20 -11 -6 -16 1 -25 38 -5 20 -3
27 9 27 11 0 15 11 15 44 0 67 7 79 43 72 17 -3 31 -7 32 -9z"/>
<path d="M442 2003 c-16 -3 -22 -9 -18 -20 3 -8 6 -42 6 -76 0 -57 2 -63 26
-74 24 -11 26 -10 21 7 -3 11 1 21 9 24 25 9 15 33 -16 40 -19 3 -30 12 -30
22 0 10 5 14 15 10 8 -3 15 -1 15 4 0 6 -6 10 -14 10 -7 0 -16 9 -19 20 -6 22
18 29 25 8 3 -7 7 -2 10 10 4 12 3 21 0 21 -4 -1 -17 -4 -30 -6z m32 -134
c-23 -25 -34 -24 -34 5 0 20 4 22 25 18 25 -4 25 -5 9 -23z"/>
<path d="M578 1955 c-3 -4 -24 -6 -47 -7 -34 0 -41 -4 -41 -21 0 -11 3 -17 6
-14 4 3 15 2 25 -4 13 -6 19 -6 19 1 0 5 -6 10 -12 11 -20 1 24 18 48 18 17 1
23 -6 26 -29 3 -19 1 -29 -6 -27 -6 2 -11 10 -11 18 0 7 -8 15 -17 17 -12 2
-18 -3 -18 -16 0 -11 6 -19 13 -18 6 0 14 -3 17 -8 3 -5 -5 -10 -17 -11 -13
-1 -23 2 -23 7 0 4 -5 8 -11 8 -5 0 -8 -4 -5 -9 3 -5 -2 -8 -12 -7 -14 1 -17
-8 -17 -54 0 -50 -8 -69 -27 -70 -5 0 -8 6 -8 14 0 16 -41 29 -54 16 -14 -14
2 -41 21 -38 10 2 17 -2 16 -9 -3 -15 24 -6 50 15 21 19 35 7 20 -16 -6 -9
-20 -16 -32 -15 -12 2 -24 -4 -28 -13 -5 -13 -7 -13 -15 -2 -6 9 -8 8 -6 -7 2
-11 -2 -20 -9 -20 -17 0 -28 -15 -12 -16 8 -1 18 -1 22 0 5 1 5 -4 1 -10 -4
-7 -20 -9 -40 -6 -19 3 -36 2 -39 -4 -4 -5 2 -6 11 -2 14 5 16 3 11 -11 -4
-10 -7 -20 -7 -22 0 -2 -9 -4 -19 -4 -20 0 -37 -17 -28 -27 7 -6 67 29 67 39
0 4 6 8 13 8 17 0 59 44 51 52 -3 4 -1 15 5 25 6 10 11 13 11 6 0 -13 40 -14
40 -1 0 4 5 8 10 8 6 0 10 -16 10 -36 0 -30 4 -37 34 -49 19 -8 36 -20 38 -27
3 -7 7 -2 10 10 4 12 2 20 -3 16 -5 -3 -9 -1 -9 5 0 6 -7 8 -15 5 -25 -10 -47
16 -40 46 5 21 2 29 -11 34 -15 6 -10 12 26 36 59 39 76 82 44 114 -13 14 -13
16 -1 16 9 0 17 -3 20 -7 2 -5 2 -1 -1 7 -3 8 -6 25 -7 38 -2 24 -27 56 -37
47z m9 -120 c-4 -8 -2 -17 3 -20 6 -4 10 -13 10 -21 0 -10 -13 -14 -48 -14
l-48 0 2 33 c1 17 3 33 3 35 1 1 19 2 42 2 32 0 40 -3 36 -15z m-22 -75 c3 -5
0 -10 -9 -10 -8 0 -16 -5 -18 -10 -2 -6 -9 -1 -16 10 -11 18 -10 20 12 20 14
0 28 -4 31 -10z"/>
<path d="M527 1819 c-4 -14 0 -19 14 -19 22 0 26 25 5 33 -8 3 -16 -2 -19 -14z"/>
<path d="M305 1883 c-16 -16 -16 -18 1 -31 15 -12 16 -14 2 -9 -11 4 -34 -13
-72 -53 -47 -49 -67 -80 -53 -80 2 0 23 18 46 40 23 22 33 37 24 33 -15 -5
-16 -4 -5 8 7 8 16 14 20 14 14 1 76 45 63 45 -9 0 -11 8 -7 25 7 29 3 31 -19
8z"/>
<path d="M627 1807 c-3 -8 -2 -18 2 -23 16 -17 31 -98 20 -109 -6 -6 -13 -5
-19 5 -9 13 -11 13 -20 0 -13 -20 -12 -37 2 -46 8 -5 9 -2 5 9 -3 10 -2 17 2
17 5 0 12 -8 16 -17 5 -15 9 -12 21 16 8 19 12 41 10 50 -3 9 -8 30 -11 46 -3
17 -7 35 -9 42 -4 20 -13 25 -19 10z"/>
<path d="M277 1773 c-4 -3 -7 -14 -7 -24 0 -14 8 -18 40 -17 23 0 40 5 40 12
0 6 5 4 10 -4 9 -13 10 -13 10 0 0 13 1 13 10 0 8 -12 10 -10 10 8 0 13 -4 21
-9 18 -5 -4 -12 0 -14 6 -4 10 -6 9 -6 -1 -1 -10 -4 -11 -15 -2 -11 9 -16 9
-22 0 -4 -8 -3 -9 4 -5 7 4 12 0 12 -10 0 -15 -3 -15 -23 4 -25 24 -30 26 -40
15z"/>
<path d="M2330 2330 c0 -11 14 -20 50 -30 43 -12 36 2 -10 22 -22 9 -40 13
-40 8z"/>
<path d="M2130 2274 c0 -31 23 -28 28 4 2 15 -2 22 -12 22 -11 0 -16 -9 -16
-26z"/>
<path d="M1957 2243 c-12 -11 -7 -35 6 -30 6 2 11 10 9 16 -1 7 2 10 7 7 5 -4
12 -2 16 4 7 11 -28 14 -38 3z"/>
<path d="M1550 2220 c0 -5 -10 -10 -22 -10 -42 0 -65 -11 -76 -35 -14 -31 -2
-39 48 -30 37 6 97 45 70 45 -7 0 -10 8 -7 20 3 11 1 20 -4 20 -5 0 -9 -4 -9
-10z m-8 -38 c13 -13 3 -18 -49 -26 -33 -4 -39 0 -25 20 15 23 54 26 74 6z"/>
<path d="M1715 2180 c-16 -10 -32 -15 -35 -10 -9 14 -78 0 -85 -18 -10 -26 28
-51 75 -49 24 1 44 7 47 14 3 7 11 13 17 13 17 0 68 55 59 63 -12 13 -48 7
-78 -13z m60 -2 c-11 -6 -24 -17 -28 -25 -4 -7 -14 -13 -22 -13 -7 0 -15 -4
-17 -9 -6 -16 -72 -21 -92 -6 -27 20 -10 36 37 34 24 -1 55 5 72 14 17 9 39
16 50 16 20 0 20 0 0 -11z"/>
<path d="M1620 2141 c0 -5 7 -12 16 -15 8 -3 12 -2 9 4 -3 6 1 10 10 10 10 0
13 -5 9 -12 -4 -7 -3 -8 4 -4 22 13 12 26 -18 26 -16 0 -30 -4 -30 -9z"/>
<path d="M1810 2151 c0 -12 29 -23 41 -15 18 10 9 24 -16 24 -14 0 -25 -4 -25
-9z"/>
<path d="M1884 2129 c-10 -17 13 -36 27 -22 12 12 4 33 -11 33 -5 0 -12 -5
-16 -11z"/>
<path d="M2120 2126 c-6 -8 -26 -16 -43 -18 -44 -4 -42 -30 3 -39 34 -7 47 -3
84 26 20 15 20 15 0 30 -24 18 -29 18 -44 1z m40 -12 c0 -11 -28 -33 -34 -27
-13 13 -5 33 14 33 11 0 20 -3 20 -6z m-42 -33 c3 -10 0 -12 -12 -8 -10 4 -26
7 -37 7 -10 0 -19 4 -19 9 0 14 63 7 68 -8z"/>
<path d="M1500 2090 c-27 -27 -25 -34 9 -47 26 -9 32 -8 51 14 12 14 19 31 16
39 -8 21 -53 17 -76 -6z m70 5 c0 -3 -9 -15 -19 -26 -13 -15 -26 -19 -40 -14
-12 3 -19 11 -15 16 11 18 74 38 74 24z"/>
<path d="M2537 2090 c-4 -17 -2 -20 14 -15 15 5 19 1 19 -17 0 -16 6 -24 19
-24 12 0 17 6 13 18 -3 11 1 18 11 18 8 0 14 -8 13 -17 -1 -13 8 -19 32 -21
17 -2 32 1 32 7 0 17 -19 22 -40 11 -12 -6 -20 -7 -20 -1 0 5 6 12 13 14 10 4
10 6 0 6 -7 1 -13 7 -13 15 0 8 -11 14 -27 13 -16 0 -35 3 -44 7 -12 5 -18 1
-22 -14z"/>
<path d="M2667 2103 c-4 -3 -7 -12 -7 -20 0 -17 66 -18 73 0 4 10 6 10 6 0 1
-8 14 -13 31 -13 20 0 28 4 24 13 -5 14 -94 20 -94 6 0 -5 -7 -9 -15 -9 -8 0
-15 5 -15 11 0 5 5 7 12 3 7 -4 8 -3 4 4 -8 14 -10 14 -19 5z"/>
<path d="M1850 2080 c9 -17 7 -20 -15 -26 -14 -3 -38 -3 -53 1 -47 13 -165 8
-177 -8 -13 -18 -40 -21 -125 -15 -27 2 -36 -2 -46 -20 -6 -13 -17 -29 -23
-35 -6 -6 -11 -23 -11 -37 0 -34 -23 -65 -71 -95 -22 -14 -41 -36 -45 -50 -7
-27 -24 -34 -24 -11 0 23 -17 28 -47 13 -23 -12 -30 -27 -44 -88 -10 -41 -22
-94 -29 -119 -6 -25 -24 -60 -41 -78 -28 -29 -35 -32 -92 -32 -39 0 -71 -6
-83 -15 -12 -8 -24 -12 -26 -9 -3 2 -12 -6 -21 -19 -11 -17 -36 -30 -83 -43
-44 -13 -72 -27 -81 -41 -19 -28 -33 -30 -26 -3 4 16 0 20 -22 20 -20 0 -26
-4 -21 -15 3 -8 1 -15 -4 -15 -6 0 -10 7 -10 15 0 8 -7 15 -16 15 -12 0 -15
-7 -11 -26 4 -21 -1 -28 -30 -42 -31 -15 -36 -15 -61 0 -24 14 -82 15 -82 1 0
-14 45 -59 63 -63 31 -8 32 -33 1 -69 l-26 -31 -33 20 c-44 27 -63 25 -71 -7
-6 -21 -2 -31 19 -47 l27 -21 -27 -65 c-17 -43 -26 -85 -27 -125 -2 -117 19
-137 114 -109 49 14 53 14 66 -3 7 -10 14 -26 14 -35 0 -10 7 -18 15 -18 19 0
32 -29 18 -39 -14 -9 -27 -65 -13 -56 5 3 10 16 10 28 0 16 3 18 9 9 4 -8 17
-13 27 -12 54 6 54 7 54 -101 0 -99 0 -100 -22 -94 -13 4 -27 11 -33 16 -13
13 -27 11 -19 -3 4 -7 3 -8 -5 -4 -9 6 -9 11 0 22 10 12 9 17 0 27 -10 9 -15
8 -25 -5 -9 -12 -16 -14 -30 -6 -18 10 -41 3 -86 -23 -23 -14 -32 -17 -78 -29
-25 -6 -54 -23 -69 -40 -14 -17 -32 -30 -40 -30 -7 0 -16 -7 -19 -15 -4 -10
-20 -15 -45 -15 -43 0 -52 -15 -16 -25 45 -13 67 -29 67 -50 0 -11 -5 -26 -11
-32 -7 -7 -2 -15 16 -27 23 -15 31 -15 97 -2 59 12 76 20 96 45 13 17 29 31
36 31 7 0 21 9 31 20 10 11 26 20 35 20 28 0 70 39 70 65 0 43 8 51 50 47 31
-3 37 -7 33 -20 -5 -14 -3 -15 8 -4 19 17 41 15 104 -10 46 -19 54 -26 49 -43
-4 -16 -3 -17 5 -5 11 16 71 23 71 8 0 -10 17 -8 54 8 14 5 17 4 12 -4 -5 -8
2 -13 21 -14 48 -3 78 -6 83 -8 55 -18 177 -20 235 -3 22 6 63 16 90 21 28 6
68 15 90 21 32 8 54 7 100 -5 118 -31 156 -29 252 12 17 8 36 14 42 14 6 0 11
4 11 9 0 5 33 15 73 22 51 9 76 19 87 33 8 12 14 24 13 28 -2 6 28 14 87 21
11 2 15 15 16 47 2 114 26 150 102 156 31 2 46 12 93 63 31 34 61 61 67 61 6
0 16 -18 22 -39 6 -22 18 -49 28 -61 17 -21 22 -22 68 -12 27 7 67 15 89 20
27 5 43 15 50 30 5 12 18 25 28 28 25 8 34 39 32 110 -2 69 -8 83 -33 81 -19
-1 -82 22 -82 30 0 2 7 12 16 21 15 14 14 16 -7 24 -15 6 -25 5 -31 -4 -4 -7
-8 -8 -8 -3 0 12 -70 36 -82 29 -19 -12 -5 -22 28 -22 20 0 40 -6 44 -12 5 -7
14 -10 22 -7 11 4 14 -1 11 -17 -4 -19 2 -26 36 -39 22 -9 48 -14 58 -10 12 4
15 3 8 -4 -18 -19 -78 -32 -175 -39 -95 -6 -96 -6 -190 33 -52 22 -113 46
-135 54 -31 12 -40 20 -40 39 0 21 9 25 93 48 86 22 99 23 153 12 32 -7 59
-17 59 -21 0 -5 7 -9 16 -9 8 0 12 5 9 10 -3 6 1 10 10 10 8 0 18 7 21 15 4 8
14 15 24 15 11 0 22 5 25 10 4 6 11 8 16 5 17 -11 59 46 59 81 0 19 5 34 10
34 6 0 10 6 10 14 0 8 -23 20 -57 30 -32 8 -46 14 -30 12 26 -3 36 7 18 19 -6
3 -10 29 -11 58 0 28 -1 63 -1 76 -1 12 5 28 11 35 10 9 11 4 6 -22 -5 -30 -4
-33 17 -30 18 2 23 10 25 41 2 26 -1 39 -12 43 -9 3 -16 14 -16 24 0 10 -6 21
-12 23 -10 4 -9 8 2 16 13 9 12 13 -7 26 -13 9 -23 23 -23 31 0 8 -10 14 -23
14 -17 0 -29 10 -43 35 -30 56 -84 82 -84 41 0 -7 -11 -18 -25 -24 -21 -10
-31 -8 -62 9 -20 11 -45 31 -55 44 -10 13 -32 26 -48 30 -17 4 -35 15 -40 25
-6 11 -26 22 -45 26 -32 6 -35 9 -35 40 0 21 -7 38 -18 46 -11 7 -24 23 -31
36 -16 31 -38 28 -46 -8 -4 -16 -12 -33 -18 -37 -21 -13 -37 -12 -37 4 0 24
-82 104 -100 98 -9 -3 -25 2 -36 10 -10 8 -27 15 -37 15 -15 0 -16 -3 -7 -20z
m41 -6 c7 -8 20 -13 30 -11 11 3 32 -11 57 -37 35 -36 40 -49 46 -102 l7 -61
-136 -48 c-110 -39 -140 -53 -157 -77 -15 -22 -18 -32 -9 -41 18 -18 13 -27
-16 -27 l-28 0 0 190 c0 188 0 189 23 195 12 3 31 1 42 -5 46 -25 135 -2 115
30 -10 16 11 12 26 -6z m-212 -182 l1 -133 -22 6 c-35 11 -238 107 -239 114
-7 39 -5 79 6 91 7 8 16 25 19 38 8 23 49 31 61 11 9 -13 84 -2 105 16 23 20
54 23 62 5 4 -8 7 -75 7 -148z m491 39 c0 -27 2 -27 -88 -22 -7 1 -11 5 -8 10
3 4 17 6 31 3 17 -3 25 0 25 9 0 11 3 11 11 -1 9 -13 10 -13 6 0 -2 9 -15 15
-33 14 -38 -1 -44 10 -26 51 l15 33 34 -35 c20 -22 33 -46 33 -62z m-109 -14
c-3 -19 -6 -25 -9 -14 -2 9 -7 17 -12 17 -4 0 -6 9 -3 19 9 33 30 14 24 -22z
m67 -37 c24 0 33 -3 26 -10 -13 -13 -52 -14 -89 -2 -25 9 -27 10 -7 11 12 1
22 7 23 14 0 10 2 10 6 0 2 -7 21 -13 41 -13z m-574 -83 c59 -26 111 -47 116
-47 6 0 10 -3 10 -7 1 -24 -46 -213 -52 -213 -12 0 -178 78 -178 84 0 2 4 16
10 31 10 25 7 27 -47 51 -44 20 -58 22 -65 12 -6 -10 -12 -8 -26 8 -9 12 -28
25 -42 29 l-25 8 24 8 c14 6 21 15 18 24 -7 16 40 58 54 49 5 -3 9 0 9 7 0 7
8 20 18 29 16 16 19 16 43 -5 15 -12 75 -43 133 -68z m684 83 c6 0 12 -7 12
-15 0 -14 45 -40 63 -37 4 1 21 -13 37 -32 41 -47 81 -62 120 -46 19 8 30 20
30 32 0 19 2 19 22 6 12 -8 30 -31 41 -51 14 -27 25 -37 43 -37 15 0 24 -6 24
-15 0 -9 7 -18 15 -21 10 -4 13 -14 9 -30 -4 -15 -2 -24 5 -24 6 0 11 -11 11
-25 0 -18 -7 -28 -25 -35 -14 -5 -25 -12 -25 -15 0 -4 5 -3 10 0 14 9 12 -9
-2 -23 -10 -10 -10 -15 2 -22 12 -8 12 -12 2 -18 -14 -10 -297 -55 -340 -55
-35 0 -154 12 -158 16 -2 2 6 29 18 60 16 43 27 59 44 63 27 7 28 10 13 70 -9
34 -8 51 2 75 15 37 18 78 7 85 -4 3 -8 16 -8 29 0 13 -4 26 -9 29 -5 3 -11
15 -14 27 -5 18 -2 20 16 15 12 -3 28 -6 35 -6z m-157 -31 c14 -7 30 -7 54 1
29 10 38 9 50 -4 9 -9 15 -21 14 -28 -1 -7 1 -20 5 -30 15 -33 2 -82 -24 -95
-24 -11 -357 -83 -386 -83 -8 0 -25 24 -38 53 l-24 52 22 22 c12 13 82 44 161
72 166 59 142 53 166 40z m-821 -118 c18 8 50 -12 50 -30 0 -24 9 -26 42 -10
18 7 33 6 62 -6 34 -14 37 -19 31 -43 -6 -24 -17 -43 -49 -87 -6 -8 -2 -23 12
-43 19 -26 30 -72 18 -72 -2 0 -23 7 -47 15 -29 11 -46 12 -53 5 -20 -20 -73
-11 -90 15 -9 14 -21 23 -26 20 -5 -3 -12 -1 -15 5 -4 6 -21 10 -38 8 -36 -3
-36 -8 -2 92 12 36 25 91 29 123 4 31 12 57 17 57 5 0 9 -6 9 -12 0 -7 8 -1
18 12 l17 25 5 -38 c3 -21 7 -37 10 -36z m934 -90 c3 -22 8 -46 12 -54 3 -10
-3 -17 -20 -21 -19 -5 -29 -19 -46 -71 -18 -53 -25 -64 -36 -55 -19 17 -87
-35 -79 -61 3 -11 8 -28 11 -40 6 -19 4 -19 -45 6 -28 14 -51 29 -51 34 0 5
-16 26 -35 47 -38 41 -120 163 -114 167 2 2 69 16 148 32 80 15 165 34 190 41
25 7 49 13 52 13 4 1 9 -17 13 -38z m-435 -13 c6 -18 34 -67 61 -108 l50 -75
-27 -3 c-67 -6 -75 -11 -71 -43 4 -36 -13 -49 -64 -49 -31 0 -38 -4 -38 -20 0
-11 -7 -20 -15 -20 -8 0 -23 -9 -32 -20 -16 -19 -17 -18 -54 15 -37 33 -106
71 -114 63 -3 -3 4 -22 14 -44 13 -25 16 -40 9 -43 -25 -9 -38 34 -38 122 0
73 -3 93 -20 114 -20 25 -20 25 0 54 l21 28 85 -40 c47 -21 94 -39 104 -39 13
0 20 14 30 63 6 34 14 65 17 70 2 4 19 7 38 7 29 0 35 -4 44 -32z m941 -93 c0
-19 -4 -35 -10 -35 -5 0 -10 16 -10 35 0 19 5 35 10 35 6 0 10 -16 10 -35z
m-1497 -54 c42 -16 46 -40 10 -70 -16 -14 -54 -59 -83 -99 -50 -70 -53 -72
-71 -56 -11 9 -19 30 -19 46 0 16 -9 49 -20 73 -28 62 -19 95 25 95 18 0 37 6
43 13 13 15 74 14 115 -2z m-209 -40 c-4 -17 0 -41 10 -59 8 -16 18 -48 22
-71 5 -34 4 -41 -10 -41 -9 0 -19 -7 -22 -15 -11 -27 -43 -28 -74 -2 -28 24
-63 27 -76 6 -11 -18 -25 -7 -59 46 -19 30 -35 56 -35 58 0 2 27 12 61 22 33
10 66 26 72 35 14 19 75 49 99 50 14 0 16 -6 12 -29z m1650 10 c3 -5 -2 -12
-11 -15 -12 -5 -14 -9 -5 -18 18 -18 14 -46 -8 -53 -35 -11 -22 -22 42 -35 42
-8 57 -14 48 -20 -8 -5 -15 -22 -15 -37 -2 -47 -21 -70 -70 -82 -25 -6 -45
-15 -45 -20 0 -16 -49 -21 -102 -10 -29 6 -54 12 -56 14 -1 1 9 26 22 56 20
46 23 65 18 127 l-5 72 29 1 c16 0 54 7 84 14 30 7 58 13 62 14 4 0 9 -3 12
-8z m-1251 -12 c35 -9 37 -12 37 -50 0 -26 -13 -67 -36 -115 -19 -40 -32 -79
-28 -86 5 -8 2 -9 -12 -3 -10 4 -64 7 -119 6 -87 -1 -103 2 -124 19 l-23 20
38 57 c22 31 58 78 82 104 36 40 50 48 85 52 23 2 47 4 52 5 6 1 27 -3 48 -9z
m525 -48 c13 -22 32 -43 43 -46 18 -6 20 -12 14 -56 -5 -38 -15 -57 -46 -88
l-40 -40 -64 30 c-64 31 -145 105 -145 134 0 10 10 15 35 15 56 0 103 28 75
45 -30 18 10 43 71 44 31 1 38 -4 57 -38z m189 31 c13 -8 21 -181 9 -200 -10
-17 2 -50 22 -57 31 -10 72 -54 72 -75 0 -25 -47 -90 -65 -90 -6 0 -19 -8 -29
-19 -26 -29 -112 -18 -151 20 -17 16 -38 29 -47 29 -24 0 -34 21 -17 34 17 14
24 63 10 80 -8 9 0 23 28 51 31 30 41 48 46 86 7 46 7 48 32 38 34 -13 39 -6
26 36 -10 32 -9 37 14 55 28 22 33 23 50 12z m153 -15 c36 -1 93 2 127 6 l61
9 4 -67 c2 -53 -2 -79 -20 -123 l-23 -57 -97 -27 -97 -26 -30 29 c-17 16 -36
29 -42 29 -15 0 -24 28 -12 36 7 4 8 41 3 106 l-7 99 34 -6 c19 -3 63 -7 99
-8z m-1586 -72 c-3 -14 -3 -25 1 -25 17 0 45 22 45 35 0 29 18 14 53 -44 l37
-58 -31 -62 c-17 -33 -29 -69 -28 -78 2 -10 -1 -28 -5 -40 l-7 -23 -42 32
c-23 18 -66 55 -94 82 -29 27 -55 47 -58 45 -6 -6 99 -109 130 -127 18 -11 18
-13 4 -22 -75 -45 -308 -249 -286 -250 5 0 44 34 87 75 43 41 83 75 88 75 18
0 131 -91 137 -110 9 -28 -16 -59 -52 -66 -19 -4 -33 -12 -33 -20 0 -8 -5 -14
-12 -14 -9 0 -9 -3 -1 -11 13 -13 33 -4 29 14 -1 7 -1 9 1 5 3 -5 11 -8 19 -8
9 0 12 -5 9 -10 -4 -6 -11 -8 -16 -5 -5 4 -9 2 -9 -4 0 -12 41 -11 58 2 8 6
12 6 12 -1 0 -6 9 -9 20 -7 27 5 25 -9 -4 -28 -16 -11 -42 -16 -75 -14 -47 2
-51 4 -51 28 0 14 -6 31 -12 38 -10 11 -10 13 0 7 6 -4 12 -2 12 3 0 6 -7 11
-15 11 -8 0 -25 12 -38 26 -22 24 -27 25 -63 15 -98 -27 -117 -14 -117 81 1
61 6 85 32 137 17 35 28 68 25 72 -3 5 1 9 9 9 8 0 28 15 45 34 17 19 33 32
36 29 3 -4 6 1 6 9 0 19 65 78 85 78 20 0 28 19 15 35 -12 15 -7 46 7 44 23
-4 35 3 29 16 -3 9 0 15 10 15 10 0 13 -7 8 -25z m806 15 c0 -5 6 -10 14 -10
8 0 38 -20 68 -45 49 -41 54 -43 62 -25 18 40 46 35 88 -14 22 -25 59 -54 83
-65 l44 -19 -14 -46 c-8 -25 -11 -46 -8 -46 3 0 -11 -17 -31 -37 -21 -22 -36
-48 -37 -63 -1 -37 -8 -88 -20 -147 -10 -50 -12 -53 -47 -59 -20 -3 -45 -8
-54 -10 -12 -4 -21 5 -31 28 -8 18 -31 49 -51 67 -20 19 -36 43 -36 52 0 9
-14 31 -30 49 l-31 33 22 15 c32 22 18 64 -41 123 -27 27 -50 58 -50 69 0 26
37 110 49 110 5 0 12 -9 16 -19 5 -17 51 -38 61 -28 2 2 -7 25 -20 50 -13 26
-19 47 -15 47 5 0 9 -4 9 -10z m-953 -90 c-13 -22 -54 -14 -62 11 -4 10 -12
19 -18 20 -7 1 -1 4 13 8 35 10 81 -17 67 -39z m83 15 c0 -8 -9 -15 -19 -15
-11 0 -26 -9 -34 -21 -10 -14 -17 -17 -22 -9 -8 13 3 26 37 45 31 18 38 18 38
0z m304 -34 c24 -27 31 -123 11 -161 -8 -16 -15 -38 -15 -48 0 -31 -30 -83
-43 -74 -7 4 -36 23 -65 41 -38 25 -51 39 -47 50 4 9 10 36 15 61 13 69 25 94
60 123 37 32 61 34 84 8z m167 -21 c50 -39 52 -40 134 -40 l82 0 -4 -27 c-6
-37 -29 -88 -47 -102 -10 -8 -26 -9 -57 -2 -24 6 -56 11 -71 11 -25 0 -28 -3
-28 -35 0 -19 -2 -35 -5 -35 -9 0 -88 41 -120 63 l-30 20 20 -20 c11 -12 45
-35 76 -52 48 -27 58 -29 68 -17 7 8 9 25 5 41 l-7 28 48 -7 c74 -12 75 -12
60 -50 -8 -19 -12 -36 -8 -39 3 -4 0 -20 -7 -37 -12 -29 -22 -34 -66 -31 -15
2 -26 -10 -44 -51 -33 -72 -64 -105 -121 -123 -45 -15 -49 -15 -89 5 -60 30
-78 94 -41 141 10 13 16 30 13 38 -3 10 0 12 12 8 13 -5 22 5 40 46 43 96 64
179 53 211 -9 26 -6 32 29 62 22 18 43 33 47 34 4 0 30 -18 58 -40z m257 -52
c8 -8 15 -8 27 2 9 7 15 8 15 2 0 -6 20 -30 44 -55 55 -57 62 -82 31 -109
l-23 -20 34 -34 c19 -19 34 -40 34 -47 0 -7 16 -31 36 -52 50 -55 68 -91 49
-99 -8 -3 -16 3 -20 14 -10 30 -76 94 -114 110 -18 7 -61 13 -95 13 -46 0 -64
4 -73 17 -7 10 -26 23 -43 30 -19 8 -30 20 -30 32 0 18 56 98 88 125 7 6 12
17 11 25 -3 27 1 58 9 58 4 0 13 -5 20 -12z m-916 -14 c30 -16 31 -17 13 -30
-38 -28 -76 -8 -61 31 7 19 10 19 48 -1z m1472 -10 c17 -16 12 -63 -7 -75 -15
-11 -3 -44 18 -47 11 -2 34 -17 50 -32 25 -24 40 -29 92 -32 48 -2 67 1 79 14
15 15 21 10 80 -70 35 -48 71 -99 79 -114 15 -26 14 -27 -27 -50 -31 -17 -45
-32 -53 -58 -9 -30 -14 -35 -37 -32 -20 2 -28 9 -28 23 0 10 -4 19 -10 19 -5
0 -10 6 -10 13 0 6 -9 23 -20 37 -11 14 -20 31 -20 38 0 7 -16 34 -35 60 l-34
47 37 33 c39 35 27 33 -23 -4 -16 -12 -52 -32 -80 -45 -27 -12 -60 -31 -71
-41 -19 -17 -131 -54 -139 -46 -2 2 3 32 10 68 8 36 14 84 15 107 0 33 6 46
29 65 26 22 44 55 46 83 4 50 31 68 59 39z m520 -165 c46 -20 85 -29 121 -29
l52 0 -18 -82 c-27 -114 -27 -115 -43 -97 -7 8 -18 33 -25 57 -17 60 -41 56
-108 -18 -30 -33 -60 -60 -66 -60 -7 0 -18 14 -26 31 -7 16 -42 69 -77 116
-38 51 -61 90 -56 97 4 7 16 24 27 38 l20 25 65 -24 c36 -14 96 -38 134 -54z
m-1643 29 c64 -43 64 -43 32 -46 -17 -2 -34 -9 -36 -16 -6 -15 23 -18 41 -3 8
6 12 6 12 -2 0 -6 5 -11 10 -11 6 0 10 7 10 15 0 9 6 12 15 9 22 -9 18 -34 -5
-34 -12 0 -20 -7 -20 -17 0 -27 -33 -71 -49 -65 -8 3 -11 0 -7 -6 3 -6 0 -12
-6 -15 -23 -7 -48 5 -48 24 0 12 -27 38 -71 70 -38 28 -67 54 -64 57 12 13
110 81 116 82 4 0 35 -19 70 -42z m2001 -85 c2 -57 0 -63 -30 -91 -18 -17 -32
-34 -32 -40 0 -5 -26 -13 -57 -17 -31 -4 -67 -11 -81 -16 -21 -8 -23 -7 -16
13 4 13 15 57 24 98 l16 75 50 6 c27 3 65 12 84 21 19 8 36 14 37 14 1 -1 3
-29 5 -63z m-1515 -12 c40 -36 52 -40 81 -29 40 14 125 -14 170 -58 50 -48 61
-83 35 -118 -10 -14 -23 -26 -29 -26 -6 0 -17 -7 -24 -15 -7 -8 -21 -15 -31
-15 -11 0 -16 -5 -14 -12 3 -7 -5 -25 -17 -39 -27 -31 -129 -111 -135 -106 -2
2 -19 62 -37 133 -19 71 -44 155 -56 187 -23 57 -23 58 -4 92 10 19 21 35 24
35 3 0 20 -13 37 -29z m-69 -101 c63 -175 65 -195 21 -204 -41 -8 -149 -7
-170 2 -14 6 -15 9 -3 20 8 7 14 8 14 2 0 -5 9 -10 21 -10 12 0 19 5 16 13 -4
14 -32 17 -62 6 -18 -6 -20 -3 -17 42 3 36 9 52 25 62 12 8 35 41 51 75 25 52
32 60 54 59 22 -2 29 -11 50 -67z m869 -13 c63 -132 79 -157 105 -163 28 -6
29 -9 32 -71 1 -10 -6 -18 -14 -19 -8 -1 -30 -2 -48 -2 -25 -2 -35 -8 -45 -29
-14 -33 -25 -43 -52 -43 -16 0 -37 34 -102 164 l-82 164 37 25 c20 14 53 32
72 40 34 15 36 14 61 -14 14 -16 31 -40 36 -52z m-1264 -64 c-12 -9 -19 -10
-24 -2 -3 6 -26 11 -51 11 -38 0 -89 15 -65 19 4 1 12 3 17 4 6 1 15 3 20 4 6
0 10 8 10 16 0 8 8 15 18 16 39 2 62 6 69 13 4 4 11 -10 16 -31 6 -30 4 -40
-10 -50z m1120 -81 c37 -77 67 -142 67 -145 0 -4 -9 -7 -20 -7 -13 0 -20 7
-20 20 0 17 -7 20 -50 22 -27 1 -58 2 -67 2 -10 1 -18 -6 -18 -14 0 -11 12
-15 47 -15 26 -1 44 3 42 7 -9 15 13 8 27 -8 12 -14 4 -15 -72 -12 l-84 3 -6
90 c-4 50 -12 108 -18 129 -6 22 -9 41 -8 42 4 3 83 22 97 23 10 1 38 -46 83
-137z m-188 91 c16 -41 25 -238 13 -301 -11 -57 -14 -63 -32 -57 -12 4 -49 14
-84 22 -77 19 -96 44 -77 107 11 38 11 38 23 15 8 -14 10 -16 6 -4 -7 19 -6
206 1 214 7 7 71 19 106 20 26 1 39 -4 44 -16z m-863 -30 c21 -9 38 -22 38
-27 0 -6 -10 -34 -22 -63 l-22 -53 -57 0 c-31 0 -71 3 -88 6 -27 6 -31 11 -31
38 0 29 7 37 63 73 34 23 66 42 71 42 5 1 27 -7 48 -16z m138 -33 c0 -20 -5
-30 -15 -30 -8 0 -15 -5 -15 -11 0 -8 -5 -8 -15 1 -8 7 -15 9 -15 5 0 -4 -8
-1 -17 6 -10 7 -15 9 -11 5 4 -5 3 -15 -3 -23 -9 -11 -1 -13 45 -13 58 0 64
-5 43 -34 -11 -14 -21 -16 -66 -10 -50 6 -52 8 -46 33 4 14 11 29 17 32 5 3 9
9 9 13 -3 21 2 28 32 41 48 21 57 19 57 -15z m557 -43 c-4 -40 -13 -92 -22
-116 -13 -39 -13 -47 0 -74 19 -38 20 -37 -12 -37 -16 -1 -45 -7 -65 -14 l-38
-14 -10 39 c-6 22 -23 48 -42 62 l-31 25 52 38 c28 21 56 50 63 64 6 14 29 35
51 45 22 11 42 28 45 37 10 40 15 13 9 -55z m-291 -96 c20 -69 11 -79 -84 -93
-88 -13 -106 -8 -160 37 -47 41 -51 55 -22 87 18 21 27 23 135 23 l115 0 16
-54z m-475 19 l65 0 -15 -65 c-10 -43 -19 -64 -27 -61 -7 3 -29 8 -49 12 -35
6 -36 7 -20 31 9 14 15 27 12 29 -2 3 -12 -7 -21 -21 -9 -14 -25 -25 -36 -25
-18 0 -20 7 -20 56 0 54 1 56 23 50 12 -3 51 -6 88 -6z m177 -5 c6 -6 -32
-141 -44 -154 -19 -21 -36 -3 -30 32 l6 32 -11 -28 c-8 -21 -17 -27 -33 -25
-24 4 -24 2 -1 91 l18 69 46 -7 c25 -4 47 -8 49 -10z m68 -96 c38 -26 53 -30
94 -27 l48 3 4 -38 4 -39 -36 7 c-19 3 -42 6 -50 6 -28 0 -61 10 -57 17 3 4 1
16 -4 27 -7 19 -8 18 -8 -4 -1 -17 -5 -22 -17 -17 -8 3 -25 1 -36 -5 -32 -17
-38 1 -20 68 11 43 19 58 25 48 4 -8 28 -29 53 -46z m-478 26 c17 -14 37 -25
45 -25 11 0 13 -8 7 -40 -8 -44 -32 -69 -66 -70 -11 0 -29 -9 -39 -20 -31 -34
-49 -24 -83 45 -38 78 -39 85 -8 85 13 0 29 7 36 15 7 8 21 15 31 15 11 0 19
5 19 10 0 18 28 11 58 -15z m838 -58 c10 -29 11 -39 1 -41 -7 -2 -32 -10 -55
-17 -63 -19 -132 -18 -145 2 -18 29 0 66 35 73 18 4 46 17 62 30 28 23 30 23
59 7 19 -10 35 -31 43 -54z m604 53 c0 -11 -7 -20 -16 -20 -8 0 -41 -12 -72
-26 -52 -24 -83 -35 -151 -51 -23 -6 -23 -4 -17 33 7 36 36 91 36 67 0 -11 42
-9 61 3 4 2 9 -1 11 -8 4 -10 13 -10 40 -1 20 6 42 7 49 2 8 -5 17 -3 21 4 6
9 8 9 8 0 0 -7 5 -13 10 -13 6 0 9 3 9 8 -2 12 1 22 6 22 3 0 5 -9 5 -20z
m-1597 -85 c15 -30 22 -55 16 -55 -5 0 -7 -6 -3 -12 6 -10 4 -10 -8 0 -9 7
-46 14 -82 15 -58 2 -66 0 -66 -16 0 -10 5 -15 10 -12 6 4 8 12 4 18 -3 7 1 4
9 -5 17 -21 37 -24 37 -5 0 7 5 5 10 -5 8 -12 19 -15 52 -11 24 3 46 10 49 15
11 17 19 -23 9 -42 -15 -28 -37 -37 -107 -45 l-63 -7 0 34 c0 37 -18 60 -60
77 -25 10 -25 10 5 11 20 0 40 11 60 32 28 28 83 68 95 68 3 0 18 -25 33 -55z"/>
<path d="M1813 1913 c-7 -3 -13 -10 -13 -17 0 -11 17 -12 108 -7 6 1 12 7 12
14 0 12 -80 20 -107 10z"/>
<path d="M1487 1909 c-4 -13 6 -16 59 -18 52 -1 64 1 64 14 0 16 -2 17 -72 19
-36 1 -48 -3 -51 -15z"/>
<path d="M1417 1743 c-4 -3 -7 -12 -7 -19 0 -10 29 -13 120 -12 94 1 120 4
120 14 0 8 -4 14 -10 14 -5 0 -10 -6 -10 -12 0 -10 -2 -10 -8 -1 -5 7 -35 10
-90 8 -45 -1 -85 2 -88 6 -6 11 -18 12 -27 2z"/>
<path d="M2402 1604 c2 -14 12 -19 35 -19 17 0 29 -3 26 -7 -2 -5 0 -8 5 -8 5
0 12 8 14 18 6 21 -28 28 -50 10 -10 -9 -12 -8 -10 2 2 7 -3 15 -10 17 -9 4
-13 -1 -10 -13z"/>
<path d="M1897 1730 c6 -22 33 -28 33 -7 0 8 4 7 10 -3 9 -13 11 -13 20 0 6
10 10 11 10 3 0 -9 17 -13 50 -13 39 0 50 4 50 16 0 11 -7 14 -30 10 -16 -2
-30 0 -30 5 0 6 -5 7 -10 4 -6 -4 -7 -11 -4 -17 4 -6 -3 -5 -16 2 -12 6 -37
14 -55 16 -29 3 -32 2 -28 -16z"/>
<path d="M1180 1588 c0 -10 5 -18 10 -18 6 0 10 6 10 13 0 9 2 9 9 -1 9 -16
116 -13 116 3 0 6 -33 12 -73 15 -64 4 -72 3 -72 -12z"/>
<path d="M1333 1579 c-1 -15 2 -19 13 -15 9 3 20 6 25 6 5 0 9 7 9 15 0 25
-45 19 -47 -6z"/>
<path d="M1870 1520 c0 -16 6 -20 34 -20 19 0 38 5 41 11 9 14 7 15 -37 23
-34 6 -38 5 -38 -14z"/>
<path d="M1970 1519 c0 -16 5 -18 25 -13 15 4 25 2 25 -5 0 -17 17 -13 24 5 8
22 4 25 -38 29 -30 3 -36 0 -36 -16z"/>
<path d="M2083 1533 c-35 -7 -37 -31 -2 -29 21 0 29 6 29 18 0 10 -1 17 -2 17
-2 -1 -13 -4 -25 -6z"/>
<path d="M1530 1402 c0 -16 7 -20 35 -20 20 0 35 5 35 12 0 8 2 8 8 0 10 -17
62 -15 62 2 0 10 -14 14 -47 14 -27 0 -58 3 -70 6 -18 5 -23 2 -23 -14z"/>
<path d="M1034 1399 c-10 -17 7 -29 42 -29 20 0 34 5 34 13 0 8 4 7 10 -3 8
-12 11 -13 19 -1 7 11 9 11 14 0 3 -9 6 -10 6 -2 1 6 -4 15 -9 18 -17 10 -110
13 -116 4z"/>
<path d="M810 1340 c0 -22 1 -22 98 -22 66 -1 83 5 64 24 -8 8 -15 8 -25 0
-10 -8 -17 -8 -24 -1 -8 8 -17 7 -33 -1 -15 -8 -20 -8 -16 -1 4 6 3 11 -3 11
-5 0 -13 -5 -17 -11 -5 -8 -10 -6 -16 5 -12 22 -28 20 -28 -4z"/>
<path d="M2510 1293 c0 -22 4 -23 70 -23 54 0 70 3 70 14 0 20 -42 24 -58 6
-9 -12 -12 -12 -10 -1 2 8 -7 14 -24 15 -16 1 -28 -3 -28 -9 0 -5 -5 -3 -10 5
-8 12 -10 11 -10 -7z"/>
<path d="M1170 1299 c0 -10 5 -19 11 -19 5 0 8 4 4 9 -3 5 0 13 6 17 7 4 9 3
5 -4 -10 -16 13 -25 30 -11 12 10 13 9 8 -4 -4 -12 -1 -14 15 -10 11 3 18 10
15 15 -4 6 5 3 19 -7 24 -15 26 -15 36 2 6 10 11 12 11 6 0 -7 7 -13 15 -13 8
0 15 6 15 13 0 8 4 7 10 -3 8 -13 10 -13 10 2 0 14 -10 17 -52 17 -29 0 -77 2
-105 5 -47 3 -53 2 -53 -15z"/>
<path d="M1742 1291 c2 -9 15 -17 32 -18 15 -1 31 -4 34 -8 3 -3 14 3 25 12
11 10 18 14 15 8 -4 -6 6 -10 22 -10 15 0 26 5 23 10 -2 6 2 1 11 -9 14 -18
16 -18 22 -2 4 9 5 19 2 21 -2 2 -46 6 -96 8 -79 3 -92 1 -90 -12z"/>
<path d="M2000 1120 c0 -23 10 -26 28 -8 9 9 12 9 12 0 0 -17 47 -15 54 3 4
10 -1 15 -17 16 -12 0 -34 3 -49 5 -23 4 -28 1 -28 -16z"/>
<path d="M2226 1265 c-4 -11 3 -15 29 -16 19 -1 45 -2 58 -2 13 -1 22 4 22 13
0 18 -66 23 -77 6 -6 -8 -8 -7 -8 2 0 17 -17 15 -24 -3z"/>
<path d="M597 1216 c-9 -22 3 -26 78 -27 70 -1 86 4 67 23 -8 8 -15 8 -26 -1
-9 -8 -16 -9 -21 -2 -3 6 -16 10 -28 9 -12 -1 -32 2 -43 6 -15 4 -23 2 -27 -8z"/>
<path d="M457 1022 c3 -15 14 -18 54 -18 37 1 49 5 47 15 -2 9 -15 15 -36 15
-19 0 -38 -7 -43 -15 -7 -11 -9 -11 -9 4 0 9 -4 17 -9 17 -5 0 -7 -8 -4 -18z"/>
<path d="M470 833 c0 -9 15 -13 50 -14 28 -1 74 -2 103 -2 38 -1 52 3 52 13 0
11 -22 14 -102 15 -80 1 -103 -1 -103 -12z"/>
<path d="M1554 1055 c-3 -8 -3 -18 0 -23 7 -12 59 -3 68 12 5 8 8 7 8 -2 0 -9
14 -12 45 -11 27 2 44 7 42 13 -4 13 -125 17 -133 5 -7 -12 -24 -11 -24 2 0 5
5 7 10 4 6 -3 10 -1 10 4 0 16 -20 13 -26 -4z"/>
<path d="M810 1110 c0 -18 6 -20 40 -18 22 1 39 6 37 12 -5 14 -40 17 -49 3
-5 -8 -8 -6 -8 6 0 9 -4 17 -10 17 -5 0 -10 -9 -10 -20z"/>
<path d="M791 1073 c-1 -20 4 -23 39 -23 22 0 40 4 40 9 0 17 -20 23 -35 11
-11 -10 -15 -10 -15 -1 0 7 -4 10 -9 7 -5 -4 -12 0 -14 6 -3 7 -6 3 -6 -9z"/>
<path d="M1013 1125 c-8 -21 -5 -23 52 -25 102 -5 145 -1 145 14 0 20 -52 25
-68 6 -7 -8 -11 -10 -10 -3 2 6 0 11 -4 12 -21 3 -29 0 -24 -7 3 -5 -1 -9 -9
-9 -8 0 -12 4 -9 9 3 4 -4 8 -15 8 -12 0 -21 -4 -21 -10 0 -5 -7 -10 -15 -10
-18 0 -20 16 -2 23 9 4 9 6 -1 6 -7 1 -15 -6 -19 -14z"/>
<path d="M890 878 c0 -16 9 -18 80 -17 53 1 80 5 80 13 0 6 5 4 10 -4 8 -13
10 -12 10 3 0 14 -6 18 -28 16 -15 -2 -32 -1 -37 3 -6 3 -34 6 -62 5 -44 -1
-53 -4 -53 -19z"/>
<path d="M1267 993 c-4 -3 -7 -12 -7 -20 0 -10 19 -13 75 -13 59 0 75 3 75 15
0 16 -50 16 -62 0 -5 -6 -8 -5 -8 3 0 6 -9 12 -19 12 -11 0 -22 -6 -24 -12 -3
-8 -6 -6 -6 5 -1 17 -12 22 -24 10z"/>
<path d="M1810 979 c0 -5 6 -7 13 -3 8 5 8 2 -2 -9 -12 -16 -9 -17 32 -17 27
0 47 5 50 13 4 10 6 10 6 0 1 -7 8 -13 17 -13 9 0 14 6 11 13 -2 7 -21 12 -45
11 -23 0 -42 3 -42 8 0 4 -9 8 -20 8 -11 0 -20 -5 -20 -11z"/>
<path d="M1780 910 c0 -15 5 -20 18 -18 9 2 17 10 17 18 0 8 -8 16 -17 18 -13
2 -18 -3 -18 -18z"/>
<path d="M1832 913 c-9 -17 -5 -18 59 -18 49 0 69 4 69 12 0 9 -15 13 -44 13
-24 0 -51 3 -59 6 -9 3 -20 -2 -25 -13z"/>
<path d="M2092 813 c2 -9 9 -18 16 -21 8 -2 10 3 6 15 -5 15 -4 16 5 2 12 -19
71 -23 71 -6 0 8 3 7 9 -2 5 -7 14 -10 20 -7 21 14 -1 27 -40 25 -21 -2 -41 0
-45 4 -15 14 -46 7 -42 -10z"/>
<path d="M2277 923 c-4 -3 -7 -12 -7 -20 0 -17 76 -18 83 0 4 10 6 10 6 0 1
-8 16 -13 40 -13 22 0 42 5 44 13 4 10 6 10 6 0 1 -8 16 -13 42 -13 52 0 48
24 -4 26 -20 1 -43 4 -51 7 -9 4 -18 2 -20 -2 -3 -5 -23 -5 -45 -1 -25 4 -44
3 -52 -4 -8 -8 -13 -8 -16 2 -5 13 -16 16 -26 5z"/>
<path d="M630 955 c0 -8 3 -15 8 -16 4 0 23 -2 42 -4 19 -2 41 2 49 8 11 9 13
9 8 0 -4 -6 -3 -14 2 -17 7 -5 21 14 21 29 0 8 -77 11 -92 3 -12 -5 -18 -5
-18 2 0 5 -4 10 -10 10 -5 0 -10 -7 -10 -15z"/>
<path d="M2616 864 c-3 -9 -6 -16 -6 -17 0 -2 46 0 98 2 20 1 13 27 -8 28 -12
1 -18 -3 -14 -9 4 -6 -1 -6 -14 1 -15 8 -22 8 -25 -2 -4 -9 -6 -9 -6 1 -1 17
-18 15 -25 -4z"/>
<path d="M1340 730 c0 -17 7 -20 44 -20 58 0 71 25 18 34 -56 9 -62 8 -62 -14z"/>
<path d="M1050 711 c0 -16 8 -19 70 -19 39 0 70 4 70 9 0 14 -41 31 -58 23
-23 -10 -71 -11 -65 -1 2 4 -1 7 -6 7 -6 0 -11 -8 -11 -19z"/>
<path d="M1957 671 c-4 -15 2 -20 27 -24 21 -4 35 0 44 11 7 9 12 11 12 4 0
-7 9 -12 21 -12 36 0 14 25 -25 28 -27 2 -36 0 -31 -8 4 -7 -4 -5 -18 4 -23
16 -25 16 -30 -3z"/>
<path d="M1580 540 c1 -16 19 -28 45 -28 17 0 33 5 37 12 6 8 8 7 8 -1 0 -8
14 -13 35 -13 24 0 35 5 35 15 0 8 -6 15 -12 15 -99 4 -148 4 -148 0z"/>
<path d="M720 640 c0 -18 7 -20 75 -20 76 0 93 10 53 31 -16 8 -23 9 -26 1 -2
-6 -10 -8 -18 -5 -8 3 -22 -1 -31 -8 -9 -8 -14 -9 -10 -3 4 7 0 15 -9 18 -26
10 -34 7 -34 -14z"/>
<path d="M1380 511 c0 -16 5 -18 33 -12 17 4 47 4 65 0 30 -6 52 4 38 19 -4 3
-36 7 -71 8 -57 3 -65 1 -65 -15z"/>
<path d="M1071 523 c-1 -22 3 -23 64 -23 51 0 65 3 65 15 0 8 -5 15 -11 15 -5
0 -7 -6 -3 -12 5 -9 2 -9 -9 1 -14 11 -20 11 -33 1 -8 -8 -14 -9 -13 -4 4 23
-2 26 -17 8 -8 -10 -12 -12 -8 -4 7 13 5 13 -8 2 -14 -11 -17 -10 -21 5 -4 14
-5 13 -6 -4z"/>
<path d="M1050 411 c0 -6 5 -13 12 -17 7 -5 8 -3 3 7 -8 12 -6 12 8 1 9 -8 21
-11 27 -7 5 3 10 0 10 -7 0 -9 3 -9 10 2 16 25 12 30 -30 30 -22 0 -40 -4 -40
-9z"/>
<path d="M450 408 c0 -15 9 -18 60 -18 47 0 60 3 60 15 0 8 -6 15 -12 16 -7 0
-34 1 -60 2 -40 2 -48 0 -48 -15z"/>
<path d="M1250 411 c0 -18 6 -21 40 -21 29 0 40 4 40 15 0 8 -4 15 -9 15 -5 0
-16 3 -25 6 -11 4 -16 1 -16 -10 0 -9 -5 -16 -11 -16 -5 0 -8 4 -4 9 3 5 1 12
-5 16 -5 3 -10 -3 -10 -14z"/>
<path d="M2697 2043 c7 -18 63 -17 63 0 0 9 -12 13 -34 13 -22 -1 -32 -5 -29
-13z"/>
<path d="M2794 2030 c-12 -4 -24 -15 -27 -24 -7 -18 -28 -22 -24 -5 1 6 -4 14
-11 16 -9 4 -11 -2 -7 -20 5 -17 2 -26 -9 -30 -9 -4 -16 -14 -16 -24 0 -14 -3
-12 -13 7 -10 19 -20 25 -47 25 -36 0 -50 -23 -20 -33 13 -5 13 -3 1 11 -7 10
-9 17 -3 17 15 0 24 -32 12 -44 -7 -7 -14 -6 -22 2 -19 19 -37 14 -50 -13 -8
-19 -8 -28 2 -40 7 -8 16 -12 21 -9 5 3 9 -2 9 -10 0 -8 -4 -18 -10 -21 -15
-9 -12 -42 6 -76 12 -24 21 -30 42 -27 21 2 27 8 26 26 0 12 5 22 13 22 7 0
13 7 13 15 0 8 -5 15 -11 15 -26 0 1 26 34 31 27 4 39 1 51 -13 13 -15 19 -16
36 -6 11 7 21 20 22 28 2 28 -3 65 -12 75 -11 13 -2 55 11 55 15 0 50 40 44
50 -7 12 -32 12 -61 0z m46 -10 c0 -6 -11 -15 -25 -22 -14 -6 -27 -23 -30 -39
-4 -16 -11 -31 -16 -34 -17 -11 -9 -26 10 -20 14 4 21 0 23 -12 11 -51 -23
-76 -54 -41 -11 14 -21 19 -24 12 -3 -6 -15 -9 -27 -7 -14 3 -30 -3 -41 -16
-19 -21 -19 -22 -1 -35 17 -12 17 -13 -6 -19 -19 -5 -21 -9 -11 -19 17 -17 15
-28 -7 -28 -11 0 -27 10 -35 22 -17 24 -22 68 -8 68 5 0 14 11 20 24 10 22 8
24 -18 29 -23 5 -27 10 -23 27 6 24 16 25 33 5 9 -10 17 -12 23 -6 5 5 16 7
23 4 11 -4 12 2 8 26 -8 39 10 41 28 4 7 -15 22 -29 33 -31 16 -3 18 -1 8 9
-20 20 -16 41 6 34 14 -4 24 3 40 29 12 19 27 37 34 40 21 8 37 6 37 -4z"/>
<path d="M2500 1852 c0 -4 5 -13 12 -20 18 -18 28 -15 28 8 0 13 -7 20 -20 20
-11 0 -20 -4 -20 -8z"/>
<path d="M286 1251 c-6 -9 2 -80 10 -93 8 -13 31 3 64 44 26 32 30 42 19 49
-18 12 -86 11 -93 0z m86 -7 c7 -5 -52 -74 -63 -74 -4 0 -9 18 -11 40 -3 39
-3 39 32 38 19 0 38 -2 42 -4z"/>
<path d="M2670 1155 c0 -27 9 -32 28 -13 18 18 14 38 -8 38 -15 0 -20 -7 -20
-25z"/>
<path d="M2374 1058 c-9 -15 5 -25 36 -26 17 0 30 4 30 11 0 8 2 9 8 1 13 -20
59 -25 76 -8 15 14 16 14 16 -3 0 -15 2 -16 10 -3 19 29 23 28 -93 33 -43 2
-80 -1 -83 -5z"/>
<path d="M387 610 c4 -14 8 -18 13 -10 6 10 8 10 12 0 4 -13 19 -14 131 -10
51 2 76 7 74 14 -5 15 -47 16 -47 2 0 -7 -3 -8 -8 -1 -4 6 -36 11 -72 12 -36
1 -75 5 -87 8 -19 6 -21 4 -16 -15z"/>
<path d="M460 559 c0 -15 6 -20 23 -18 12 2 33 -3 45 -10 31 -16 39 -7 16 17
-26 26 -54 35 -54 17 0 -8 -5 -15 -11 -15 -6 0 -9 7 -5 15 3 8 1 15 -4 15 -6
0 -10 -9 -10 -21z"/>
<path d="M630 399 c0 -19 5 -20 64 -17 35 1 62 0 59 -4 -9 -16 10 -7 24 10 8
9 12 11 8 5 -4 -8 0 -13 9 -13 9 0 16 6 16 13 0 8 4 7 11 -3 9 -13 10 -13 6 0
-5 18 -88 24 -99 6 -6 -8 -8 -8 -8 2 0 6 -5 12 -11 12 -5 0 -7 -6 -3 -12 5 -8
1 -8 -10 1 -15 13 -19 13 -27 0 -7 -11 -9 -11 -9 4 0 9 -7 17 -15 17 -9 0 -15
-9 -15 -21z"/>
<path d="M776 352 c-15 -14 -3 -28 25 -30 22 -2 28 1 23 10 -6 9 -3 9 9 -1 14
-11 20 -11 34 0 10 8 14 9 10 2 -4 -6 -3 -14 2 -17 5 -3 12 1 15 10 9 24 8 24
-21 23 -16 0 -42 1 -60 4 -17 3 -34 3 -37 -1z"/>
<path d="M906 335 c-7 -18 24 -21 42 -3 9 9 12 9 12 0 0 -7 15 -11 40 -10 26
1 40 6 40 15 0 20 -126 18 -134 -2z"/>
<path d="M2186 173 c-12 -12 -6 -43 9 -43 8 0 15 9 15 19 0 21 -13 34 -24 24z"/>
<path d="M2477 174 c-11 -11 -8 -44 3 -44 15 0 24 30 13 41 -5 5 -12 6 -16 3z"/>
<path d="M2704 171 c-2 -2 4 -10 14 -18 9 -8 12 -12 5 -9 -6 4 -14 2 -17 -3
-4 -5 7 -9 24 -9 34 1 43 9 34 31 -5 13 -49 19 -60 8z"/>
<path d="M2800 171 c-16 -6 -24 -41 -9 -41 4 0 13 8 19 18 11 16 11 16 6 0 -3
-10 -1 -18 4 -18 6 0 10 6 10 13 0 9 3 8 9 -2 7 -11 9 -11 14 0 4 10 6 10 6 2
1 -7 10 -13 22 -13 14 0 19 5 17 18 -2 13 -12 17 -38 15 -19 -1 -37 2 -40 6
-3 5 -12 6 -20 2z"/>
<path d="M2191 103 l-1 -23 275 0 275 0 -1 23 c-1 16 -2 18 -6 5 -4 -16 -19
-18 -133 -18 -114 0 -129 2 -133 18 -4 16 -5 16 -6 0 -1 -16 -14 -18 -130 -18
-115 0 -130 2 -134 18 -4 13 -5 11 -6 -5z"/>
<path d="M760 65 c0 -20 4 -26 18 -23 9 2 17 12 17 23 0 11 -8 21 -17 23 -14
3 -18 -3 -18 -23z"/>
</g>
</svg>
