<?xml version="1.0" standalone="no"?>
<!DOCTYPE svg PUBLIC "-//W3C//DTD SVG 20010904//EN"
 "http://www.w3.org/TR/2001/REC-SVG-20010904/DTD/svg10.dtd">
<svg version="1.0" xmlns="http://www.w3.org/2000/svg"
 width="300.000000pt" height="249.000000pt" viewBox="0 0 300.000000 249.000000"
 preserveAspectRatio="xMidYMid meet">
<metadata>
Created by potrace 1.10, written by Peter Selinger 2001-2011
</metadata>
<g transform="translate(0.000000,249.000000) scale(0.050000,-0.050000)"
fill="#000000" stroke="none">
<path d="M4680 4583 c0 -29 92 -67 142 -59 44 7 41 11 -29 42 -87 38 -113 42
-113 17z"/>
<path d="M4895 4548 c-23 -22 9 -68 47 -68 44 0 49 21 14 56 -27 27 -43 30
-61 12z"/>
<path d="M4293 4527 c-24 -25 -13 -107 15 -107 29 0 58 75 40 103 -12 20 -36
22 -55 4z"/>
<path d="M3120 4380 c0 -11 -23 -20 -51 -20 -74 0 -149 -56 -149 -112 0 -53
29 -60 135 -29 90 25 123 63 111 127 -10 51 -46 77 -46 34z m-20 -90 c0 -16
-11 -30 -25 -30 -14 0 -45 -6 -70 -13 -32 -8 -45 -3 -45 19 0 30 34 47 105 52
19 1 35 -11 35 -28z"/>
<path d="M4100 4352 c0 -30 49 -57 68 -37 26 26 10 65 -28 65 -22 0 -40 -13
-40 -28z"/>
<path d="M3478 4304 c-45 -23 -99 -33 -152 -28 -108 10 -156 -55 -87 -119 43
-41 221 -36 221 5 0 10 12 18 26 18 39 0 141 113 125 138 -19 31 -52 27 -133
-14z m37 -57 c-41 -29 -75 -61 -75 -70 0 -9 -9 -17 -20 -17 -47 0 -15 75 45
105 102 51 132 40 50 -18z"/>
<path d="M5374 4244 c-25 -27 -29 -50 -15 -95 18 -62 20 -62 31 -1 4 20 17 47
29 59 25 25 28 73 4 73 -9 0 -31 -16 -49 -36z"/>
<path d="M3650 4240 c-18 -29 -8 -38 51 -45 33 -3 49 5 49 25 0 36 -80 52
-100 20z"/>
<path d="M3803 4195 c-34 -34 -28 -55 17 -55 22 0 40 13 40 29 0 40 -29 54
-57 26z"/>
<path d="M2784 4177 c5 -15 30 -30 55 -34 31 -4 43 2 37 20 -5 15 -30 30 -55
34 -31 4 -43 -2 -37 -20z"/>
<path d="M4251 4169 c-21 -16 -65 -29 -96 -29 -89 0 -65 -66 29 -81 113 -19
229 60 172 117 -31 31 -57 29 -105 -7z"/>
<path d="M2491 4161 c-6 -10 -3 -23 7 -30 24 -14 82 8 82 31 0 24 -74 23 -89
-1z"/>
<path d="M3069 4141 c-54 -22 -96 -74 -80 -100 8 -12 0 -21 -16 -21 -48 0
-153 -148 -153 -217 0 -49 -23 -80 -120 -165 -75 -64 -120 -120 -120 -146 -1
-40 -2 -40 -38 6 -62 81 -154 30 -171 -95 -51 -369 -142 -503 -351 -518 -77
-6 -146 -18 -152 -28 -6 -9 -27 -17 -48 -17 -20 0 -43 -17 -49 -38 -9 -27 -52
-49 -145 -74 -91 -24 -148 -53 -183 -92 -73 -82 -96 -73 -231 94 -60 74 -84
56 -50 -38 19 -53 32 -65 50 -50 19 15 34 7 58 -28 46 -71 125 -81 183 -23
l47 47 33 -64 c18 -35 51 -89 74 -119 40 -55 40 -55 0 -100 -57 -65 -87 -146
-87 -235 0 -112 -19 -111 -162 8 -152 127 -254 232 -224 232 12 0 26 22 31 50
11 59 -17 67 -35 10 -7 -22 -26 -40 -42 -40 -23 0 -25 9 -9 39 30 55 25 78 -8
34 -31 -41 -96 -20 -119 39 -11 28 -2 31 63 20 70 -12 72 -11 36 18 -44 34
-171 41 -171 9 0 -39 88 -139 123 -139 58 0 63 -39 14 -111 -52 -76 -69 -81
-126 -38 -111 84 -214 -15 -113 -109 l61 -57 -52 -106 c-28 -59 -54 -132 -58
-163 -4 -32 -13 -66 -20 -78 -15 -24 27 -194 57 -233 10 -14 61 -25 113 -25
98 0 133 -24 205 -141 37 -59 72 -391 40 -371 -33 20 -190 -22 -216 -57 -12
-17 -36 -31 -54 -31 -61 0 -206 -79 -294 -160 -71 -65 -102 -81 -146 -75 -62
9 -94 -20 -52 -47 16 -10 57 -18 93 -18 70 0 89 -58 45 -139 -62 -116 303
-106 407 11 33 37 76 68 94 68 19 0 45 14 59 30 14 17 65 48 113 69 83 37 87
43 87 122 l0 84 125 -13 c171 -17 250 -38 355 -92 61 -32 129 -48 210 -51 66
-1 170 -14 230 -26 202 -43 390 -34 689 30 270 59 284 60 410 31 231 -51 397
-33 583 63 56 29 121 53 145 53 69 0 193 40 193 62 0 45 74 95 150 101 l80 7
12 140 c18 209 67 270 216 270 68 0 222 142 264 244 28 69 76 26 77 -68 1 -66
77 -158 131 -158 157 0 350 50 350 91 0 13 27 44 61 68 60 45 61 47 55 209
l-6 163 -74 12 c-41 7 -112 43 -160 83 -47 38 -116 85 -152 104 l-66 34 49 39
c27 22 77 45 111 52 73 14 155 116 150 187 -2 28 6 56 17 63 40 25 -3 75 -76
88 -45 9 -64 20 -48 29 13 9 18 26 10 39 -42 68 -23 254 23 232 28 -13 46 -39
46 -66 0 -47 28 -60 51 -23 8 12 0 36 -17 53 -23 22 -26 43 -13 78 20 52 10
92 -44 170 -21 29 -32 66 -26 82 6 16 -3 40 -20 54 -17 14 -31 39 -31 54 0 15
-27 33 -60 40 -33 7 -60 20 -60 29 0 26 -122 158 -146 158 -13 0 -42 -24 -66
-54 -54 -69 -181 -42 -251 54 -24 33 -74 69 -110 81 -37 12 -67 31 -67 41 0
11 -41 37 -90 58 -50 22 -96 55 -101 74 -59 197 -134 256 -184 144 l-35 -80
-115 111 c-74 72 -131 111 -162 111 -27 0 -60 14 -74 31 -37 45 -88 27 -89
-31 0 -55 18 -54 -275 -28 -135 12 -161 9 -196 -23 -44 -40 -189 -62 -207 -32
-7 11 6 15 30 8 54 -14 146 91 114 130 -24 28 -48 30 -107 6z m61 -69 c-21
-31 -45 -44 -70 -38 -43 12 -33 59 17 73 76 20 85 14 53 -35z m746 -25 c9 6
87 -61 173 -149 148 -153 199 -187 153 -102 -22 41 10 164 43 164 27 0 97
-183 84 -222 -13 -43 -94 -74 -105 -40 -5 14 -17 17 -31 6 -13 -9 -167 -68
-343 -132 -344 -123 -414 -170 -370 -252 19 -35 15 -40 -24 -40 l-46 0 0 370
0 370 48 0 c26 0 82 -10 125 -23 95 -29 177 1 177 63 0 39 2 39 49 9 27 -18
57 -28 67 -22z m-509 -150 c35 -329 -28 -897 -99 -897 -13 0 -91 32 -171 70
l-147 71 0 83 0 84 -116 30 c-97 25 -119 26 -133 4 -13 -21 -20 -17 -30 15 -8
24 -37 49 -66 56 l-53 13 46 17 c30 11 42 28 35 48 -14 34 53 109 97 109 17 0
30 13 30 28 0 48 61 54 120 12 140 -100 460 -226 460 -182 0 12 -11 22 -25 22
-14 0 -122 46 -240 103 l-215 104 0 75 c0 136 122 276 171 197 19 -32 195 -8
219 30 50 79 104 37 117 -92z m1098 -211 c30 -6 55 -23 55 -38 0 -14 34 -42
75 -61 41 -19 109 -64 149 -100 122 -108 254 -109 293 -4 17 45 96 -33 129
-128 8 -21 33 -35 63 -35 30 0 51 -11 51 -28 0 -15 12 -32 28 -38 17 -7 23
-30 17 -62 -5 -29 -1 -52 10 -52 55 0 40 -84 -18 -104 -42 -15 -53 -26 -35
-37 19 -12 20 -23 2 -44 -17 -21 -17 -34 0 -51 28 -28 13 -33 -154 -64 -499
-92 -844 -97 -822 -11 27 106 73 185 123 208 42 19 51 33 40 69 -29 99 -35
195 -13 221 13 16 18 63 11 115 -6 49 -11 108 -12 133 -1 34 -19 50 -79 68
-63 19 -73 29 -55 51 13 15 38 22 55 16 18 -7 57 -18 87 -24z m-80 -77 c18 -7
32 -27 31 -46 0 -18 5 -69 11 -113 18 -127 2 -136 -407 -218 -203 -40 -386
-78 -405 -84 -19 -6 -35 -1 -35 11 0 12 -19 62 -43 112 -53 114 -30 147 139
199 63 19 143 48 178 64 201 92 410 122 531 75z m-1915 -149 c20 17 29 13 38
-15 7 -20 39 -46 72 -59 40 -15 60 -36 60 -64 0 -45 56 -58 92 -22 13 13 50
15 99 4 96 -20 104 -115 18 -205 -59 -61 -61 -93 -9 -159 56 -72 53 -127 -5
-107 -25 9 -106 14 -181 12 -100 -3 -138 3 -146 23 -15 38 -126 82 -186 75
-39 -5 -45 0 -33 30 52 134 110 332 122 417 8 55 18 88 24 74 6 -19 16 -20 35
-4z m1945 -293 c18 -76 16 -85 -25 -104 -39 -17 -83 -104 -121 -238 -4 -13
-21 -19 -38 -12 -18 6 -62 -12 -102 -42 -71 -54 -73 -63 -34 -165 17 -46 -158
40 -191 93 -17 28 -55 78 -85 111 -64 71 -199 268 -199 290 0 8 88 31 195 50
107 18 276 54 375 79 202 51 197 52 225 -62z m-857 -27 c25 -56 76 -145 114
-200 87 -126 86 -136 -17 -144 -82 -6 -85 -9 -82 -70 3 -68 -47 -94 -175 -90
-44 1 -51 -6 -43 -47 8 -41 2 -49 -41 -49 -28 0 -55 -14 -62 -33 -12 -29 -20
-27 -68 18 -72 68 -186 135 -229 135 -29 0 -35 19 -35 121 0 91 -10 134 -42
177 -36 49 -38 62 -15 99 36 58 63 55 231 -27 80 -38 162 -70 184 -70 41 0 44
6 82 175 35 154 130 156 198 5z m-1209 -240 c37 0 87 -17 113 -38 l46 -37
-102 -112 c-56 -62 -128 -153 -159 -202 -82 -129 -147 -88 -147 92 0 31 -10
57 -23 57 -15 0 -19 -29 -10 -89 10 -77 7 -90 -28 -101 -21 -7 -39 -21 -39
-31 0 -52 -79 -58 -132 -9 -62 58 -92 62 -154 21 -43 -29 -48 -25 -119 89
l-74 118 74 14 c87 16 176 57 199 93 20 31 139 95 178 95 18 0 28 -21 28 -58
0 -70 18 -122 42 -122 9 0 12 41 5 90 l-12 90 70 0 c39 0 82 14 96 31 14 17
38 26 54 20 15 -6 58 -11 94 -11z m2939 -109 c-24 -17 -27 -29 -11 -39 37 -23
26 -86 -17 -98 -69 -18 -48 -70 28 -70 123 0 151 -18 132 -83 -9 -32 -12 -62
-7 -68 26 -26 -61 -113 -113 -113 -30 0 -79 -19 -109 -42 -29 -24 -73 -43 -97
-43 -47 0 -214 42 -214 54 0 3 18 46 40 94 28 62 39 131 40 238 l0 150 165 31
c176 32 218 29 163 -11z m-2485 6 c101 -31 106 -122 16 -295 -33 -64 -64 -137
-69 -162 -9 -49 -30 -80 -30 -46 0 13 -66 17 -188 11 -170 -9 -196 -6 -261 34
l-73 45 51 68 c28 37 76 101 106 142 30 41 86 102 123 135 58 52 96 67 230 88
9 2 52 -7 95 -20z m1057 -97 c27 -44 65 -85 85 -92 64 -20 24 -171 -73 -277
l-67 -73 -117 52 c-126 56 -233 146 -280 235 l-29 55 71 0 c113 0 196 51 165
101 -33 53 5 78 115 79 73 0 86 -8 130 -80z m400 -120 c6 -105 2 -196 -8 -203
-27 -20 5 -117 44 -131 183 -64 174 -185 -25 -344 -72 -57 -377 -20 -339 41 6
9 -15 28 -46 41 -75 32 -74 31 -52 61 36 44 49 137 25 167 -19 22 -8 43 53
103 54 53 79 98 87 155 11 73 17 80 68 76 55 -4 57 -2 49 80 -6 66 1 91 33
119 81 68 100 40 111 -165z m290 155 c88 -2 207 3 265 13 l105 17 0 -140 c0
-182 -61 -340 -138 -357 -29 -7 -110 -30 -182 -51 -128 -38 -220 -27 -220 27
0 9 -24 26 -52 37 -41 16 -50 29 -41 64 7 25 13 128 13 230 0 182 1 186 45
175 25 -5 117 -12 205 -15z m-1574 -201 c22 -51 21 -54 -14 -35 -40 21 -62 63
-62 117 0 44 42 -2 76 -82z m174 -24 c89 -78 101 -82 124 -43 38 65 96 55 164
-28 37 -45 112 -104 166 -131 77 -39 96 -58 86 -84 -8 -19 -23 -62 -33 -97
-10 -34 -48 -96 -85 -136 -39 -42 -64 -88 -59 -107 8 -29 -45 -383 -58 -395
-3 -3 -52 -11 -109 -18 -104 -14 -104 -14 -132 52 -16 37 -53 90 -83 117 -30
28 -66 78 -81 113 -15 35 -46 83 -70 107 -40 40 -41 46 -12 78 55 60 39 137
-44 218 -162 158 -166 187 -52 380 2 4 27 -17 55 -45 99 -99 140 -62 74 68
l-40 77 55 -28 c29 -15 90 -59 134 -98z m-1294 -116 c32 -33 38 -52 22 -68
-16 -16 -15 -34 2 -66 13 -24 18 -65 11 -92 -6 -27 -3 -48 8 -48 33 0 46 93
20 141 -21 41 -16 52 54 111 97 84 89 85 222 -23 l112 -92 147 14 c165 15 184
-9 116 -146 -49 -98 -71 -108 -190 -85 -171 32 -180 30 -180 -51 0 -65 -4 -70
-45 -58 -58 18 -212 107 -227 132 -11 17 -127 -145 -128 -179 -1 -31 -79 -114
-80 -84 0 17 -40 73 -90 125 -106 111 -113 159 -41 320 77 175 186 236 267
149z m-486 -326 c38 -21 37 -23 -10 -48 -82 -42 -322 -239 -448 -367 -103
-105 -119 -115 -137 -83 -44 78 26 438 90 467 8 3 16 21 16 40 1 18 40 65 88
103 48 39 92 88 98 109 10 34 28 23 138 -80 69 -65 144 -129 165 -141z m1370
182 c13 8 66 -32 121 -89 101 -105 127 -186 69 -208 -46 -18 -36 -62 30 -133
33 -35 60 -76 60 -91 0 -15 30 -58 68 -95 97 -97 143 -194 92 -194 -11 0 -20
13 -20 28 0 110 -256 258 -430 249 -69 -3 -99 5 -128 36 -20 22 -65 52 -100
66 -82 34 -44 152 73 227 14 9 25 29 25 45 0 16 9 29 20 29 11 0 20 30 20 67
0 78 16 101 52 71 15 -12 36 -15 48 -8z m-1835 -43 c26 -16 -24 -46 -78 -47
-45 0 -68 32 -52 74 8 22 71 9 130 -27z m2921 -9 c14 -23 10 -51 -13 -98 -44
-88 -42 -115 12 -131 25 -8 63 -36 85 -63 31 -37 68 -53 149 -63 l108 -13 -72
-55 c-40 -30 -85 -55 -100 -55 -15 0 -85 -39 -156 -86 -117 -78 -306 -153
-329 -130 -5 5 4 71 20 147 16 77 29 172 30 213 0 54 13 83 50 113 49 38 72
88 99 209 14 63 81 70 117 12z m1157 20 c101 -22 163 -59 154 -92 -2 -9 13
-19 34 -23 21 -4 88 -41 149 -82 60 -41 128 -81 150 -90 82 -32 -68 -69 -286
-70 -161 -1 -222 7 -280 36 -41 20 -157 67 -259 105 -223 82 -242 121 -80 166
290 82 274 80 418 50z m-3428 -282 c155 -119 177 -296 41 -331 -20 -5 -36 -18
-36 -27 0 -10 -18 -18 -40 -18 -22 0 -40 9 -40 20 0 29 -116 145 -214 214
l-83 60 113 82 c141 101 128 101 259 0z m422 47 c186 -132 286 -136 254 -11
l-13 53 96 -14 c114 -18 161 -39 129 -59 -13 -8 -23 -48 -23 -89 0 -106 -40
-153 -130 -153 -66 0 -76 -7 -98 -70 -64 -183 -199 -300 -346 -300 -134 0
-249 201 -165 291 21 23 39 51 39 63 0 11 25 52 55 90 30 38 73 107 95 152 47
97 39 94 107 47z m2695 -34 c98 -40 204 -85 236 -100 32 -16 106 -29 165 -29
124 0 121 7 74 -210 -39 -176 -65 -182 -103 -25 -37 152 -101 173 -169 58 -40
-68 -188 -223 -212 -223 -10 0 -24 28 -30 62 -7 34 -48 104 -90 155 -42 51
-102 131 -132 177 l-55 84 43 61 c55 76 58 76 273 -10z m-310 -124 c26 -41 95
-140 155 -221 60 -80 105 -148 101 -152 -4 -4 -46 -26 -92 -49 -68 -35 -87
-56 -97 -113 -8 -38 -16 -70 -20 -70 -36 0 -109 45 -109 68 0 16 -7 32 -15 35
-8 4 -46 66 -83 137 -38 72 -87 156 -109 188 l-41 59 49 31 c26 18 84 61 128
95 45 35 83 65 84 65 2 1 24 -32 49 -73z m1141 -228 c-33 -31 -62 -65 -66 -76
-4 -11 -73 -32 -153 -48 -133 -25 -145 -24 -134 5 7 18 28 101 45 185 l33 153
101 14 c55 7 128 24 161 38 l60 25 6 -120 c6 -112 2 -125 -53 -176z m-4277
178 c123 -85 194 -162 194 -210 0 -45 5 -47 100 -37 90 10 100 7 103 -28 1
-22 4 -49 7 -60 3 -11 6 -27 8 -37 5 -36 198 -108 255 -95 109 26 114 24 129
-47 9 -45 5 -93 -12 -133 l-26 -63 -94 21 c-64 15 -104 15 -127 1 -32 -20
-193 -19 -314 2 -56 11 -60 16 -53 90 9 89 -115 152 -233 119 -15 -5 -36 19
-50 54 -50 134 -103 175 -208 161 l-95 -12 164 159 c188 183 168 174 252 115z
m1332 -47 c35 -45 53 -51 127 -44 355 36 593 -299 303 -427 -59 -26 -88 -51
-88 -76 0 -42 -256 -266 -283 -249 -9 6 -17 26 -17 45 0 19 -8 44 -18 54 -10
10 -33 95 -51 189 -19 93 -56 217 -83 275 -95 210 -11 387 110 233z m-131
-291 c103 -309 111 -296 -186 -297 -106 0 -162 -7 -150 -19 25 -25 236 -34
342 -14 l84 14 33 -112 c32 -113 16 -165 -54 -168 -7 -1 -83 -11 -167 -22
l-155 -22 -97 96 c-90 89 -122 147 -79 147 32 0 70 127 66 218 -3 70 7 102 43
141 25 28 63 92 83 141 88 211 141 188 237 -103z m1715 56 c31 -57 77 -146
102 -199 35 -73 60 -99 101 -108 99 -20 81 -166 -20 -166 -87 -1 -105 -11
-142 -83 -34 -65 -163 -93 -163 -35 0 46 -101 279 -201 464 l-82 153 93 65
c172 123 198 115 312 -91z m-328 -209 c123 -253 191 -406 182 -412 -84 -48
-410 -172 -454 -172 -7 0 -12 142 -12 315 0 173 -8 343 -17 378 -16 60 -14 63
60 82 131 35 131 35 241 -191z m-330 66 c43 -247 10 -659 -52 -640 -23 8 -93
24 -156 37 -158 32 -166 43 -138 197 22 119 36 266 40 410 2 58 8 64 77 72
186 20 213 11 229 -76z m-368 -231 c-13 -104 -24 -227 -24 -272 -1 -77 -6 -85
-62 -98 -81 -19 -94 -23 -135 -39 -28 -11 -35 -4 -35 35 0 27 -26 88 -59 136
l-58 87 65 44 c35 24 86 76 113 115 26 39 82 90 124 113 41 24 75 52 75 65 0
12 4 18 9 12 5 -5 -1 -94 -13 -198z m-1778 112 c27 -17 30 -371 3 -371 -47 0
-121 50 -121 81 0 19 -13 45 -30 59 -30 25 -39 133 -19 210 11 41 115 54 167
21z m378 -201 c3 -3 -7 -54 -22 -113 -29 -114 -40 -119 -190 -78 -3 0 9 28 26
61 41 79 9 78 -37 -1 -56 -94 -102 -71 -109 54 l-6 103 166 -11 c91 -5 169
-13 172 -15z m236 4 c13 -12 -59 -266 -83 -291 -37 -40 -71 -9 -59 53 10 52
10 52 -13 9 -24 -46 -66 -59 -86 -27 -6 10 5 78 24 152 l35 134 88 -12 c49 -7
91 -15 94 -18z m-784 -163 c81 -75 89 -179 15 -205 -139 -49 -256 -121 -301
-184 -32 -44 -62 -59 -136 -69 -53 -6 -114 -17 -136 -23 -76 -22 -69 244 9
326 93 97 143 101 189 15 21 -39 46 -71 55 -71 26 0 21 19 -25 93 -40 65 -40
67 -3 67 21 0 55 18 75 40 20 22 52 40 72 40 20 0 41 9 48 20 22 35 60 22 138
-49z m1090 -94 c117 3 174 -58 112 -121 -16 -15 -292 41 -322 65 -18 16 -40
12 -77 -12 -61 -40 -63 -29 -29 132 l22 103 87 -85 c83 -81 90 -84 207 -82z
m523 71 c57 -134 56 -136 -126 -174 -234 -49 -235 -48 -235 44 0 73 4 78 69
91 39 7 97 35 130 63 33 28 69 45 81 38 11 -7 20 -3 20 9 0 44 23 18 61 -71z"/>
<path d="M2252 4063 c-18 -28 8 -83 39 -83 45 0 50 33 11 69 -22 20 -43 26
-50 14z"/>
<path d="M5596 3981 c-14 -23 -46 -41 -71 -41 -27 0 -45 -12 -45 -30 0 -57
-74 -114 -87 -67 -6 25 -24 38 -47 34 -20 -3 -48 1 -62 11 -42 25 -52 -3 -15
-40 42 -42 9 -88 -36 -51 -37 31 -86 11 -100 -40 -13 -53 4 -97 39 -97 32 0
38 -52 8 -70 -58 -36 23 -210 97 -210 46 0 82 38 69 72 -6 17 3 28 24 28 32 0
32 4 3 48 -35 54 -26 72 39 72 25 0 52 10 59 21 8 14 24 6 42 -20 38 -53 99
-53 128 1 24 44 9 178 -19 178 -39 0 6 94 61 125 73 42 69 99 -7 109 -39 5
-62 -5 -80 -33z m67 -42 c-92 -76 -147 -235 -72 -206 22 8 29 -5 29 -51 0 -79
-51 -104 -91 -46 -25 35 -39 38 -93 23 -91 -26 -156 -94 -116 -120 25 -16 26
-22 2 -37 -15 -10 -23 -32 -16 -48 19 -49 -42 -56 -75 -9 -39 55 -39 113 0
164 40 53 37 91 -8 91 -47 0 -63 17 -50 52 9 23 17 23 50 0 60 -42 114 -18
122 55 l7 63 23 -55 c13 -30 28 -55 33 -55 5 0 23 -6 41 -13 27 -10 31 -3 20
40 -11 43 -6 53 24 53 20 0 55 27 77 60 36 54 65 72 120 77 11 1 -1 -16 -27
-38z"/>
<path d="M5033 3647 c-23 -24 -14 -45 27 -67 35 -19 40 -15 40 29 0 48 -36 68
-67 38z"/>
<path d="M1181 2575 c0 -33 56 -105 70 -91 14 14 -33 116 -54 116 -9 0 -17
-11 -16 -25z"/>
<path d="M593 2447 c-39 -39 -1 -207 46 -207 65 0 174 161 130 193 -38 28
-152 37 -176 14z m154 -43 c16 -8 -83 -124 -107 -124 -6 0 -14 31 -17 70 -4
68 50 92 124 54z"/>
<path d="M5373 2287 c-20 -20 -16 -77 9 -141 l23 -56 24 90 c28 109 0 163 -56
107z"/>
</g>
</svg>
